# xmcd CD database file
#
# Track frame offsets:
#	183
#	17908
#	34530
#	59215
#	91295
#	111108
#	131713
#	147235
#	168108
#	191483
#	224403
#	243333
#	272608
#	282413
#	298783
#	317248
#
# Disc length: 4590 seconds
#
# Revision: 7
# Processed by: cddbd v1.5.2PL0 Copyright (c) Steve Scherf et al.
# Submitted via: CDex 1.51
#
DISCID=f811ec10
DTITLE=Various Artist - Beyond The Skies Vol. 1 CD1
DYEAR=1998
DGENRE=Electronic
TTITLE0=Jean Michel Jaree - Oxygene 8
TTITLE1=Enigma - Beyond the Invisible
TTITLE2=Kitaro - Winter Waltz
TTITLE3=Mind Over Matter - Thunderchild
TTITLE4=Brainwork - Thrill Zone
TTITLE5=Alan Parsons - Cloudbreak
TTITLE6=Bernd Kistenmacher - Love Song
TTITLE7=Novalis - Herbstwind
TTITLE8=Symbian - Deception Bay
TTITLE9=Rainbow Serpent - From Within
TTITLE10=Adiemus feat. M. Stockley and The London Philharmonic- Kayama (Remix)
TTITLE11=Optical Image - Introspection
TTITLE12=Carsten Schnell - Date of Birth
TTITLE13=Dancing Fantasy - When Dreams come true
TTITLE14=Ginko Garden - Secret Call
TTITLE15=Code Indigo - Code 14
EXTD=YEAR: 1998
EXTT0=
EXTT1=
EXTT2=
EXTT3=
EXTT4=
EXTT5=
EXTT6=
EXTT7=
EXTT8=
EXTT9=
EXTT10=
EXTT11=
EXTT12=
EXTT13=
EXTT14=
EXTT15=
PLAYORDER=
